<?xml version="1.0" encoding="UTF-8"?>
<svg id="_图层_2" data-name="图层 2" xmlns="http://www.w3.org/2000/svg" viewBox="0 0 135.35999 168.96">
  <g id="_图层_1-2" data-name="图层 1">
    <path d="M0,77.99999c9.78174-18.48181,18.20273-37.76613,24.24-57.84h-15.12l1.92-16.32h50.4l-1.94549,16.29362-18.18276.05749-9.39166,26.84651,37.4151.21674,5.30481-31.89435h-13.2l1.92-15.36h71.51999l-1.91882,15.36123-11.99887.00098-4.32231,31.91779h18.72l-1.95425,15.32644-18.91374.04654-17.05201,106.30701h-17.76l17.04-106.32h-12.96c-4.29914,21.4567-11.02991,42.51456-21.12,61.92H3.36l5.27916-45.83836-8.63916-.00164v-.72001ZM103.2,15.35999h-11.28l-5.28,31.92h12.24l4.32-31.92ZM35.28,62.63999h-7.44l-5.52,46.08h8.4l4.56-46.08ZM66,62.63999h-13.92l-5.15999,52.56243c9.04517-16.36218,15.298-34.22634,19.07999-52.56243Z" fill="#cf7140"/>
  </g>
</svg>